<svg id="Layer_1" data-name="Layer 1" xmlns="http://www.w3.org/2000/svg" xmlns:xlink="http://www.w3.org/1999/xlink" viewBox="0 0 500 500"><defs><style>.cls-1{fill:none;}.cls-2{fill:#fff;}.cls-3{clip-path:url(#clip-path);}.cls-4{opacity:0.5;}.cls-5{fill:#707070;}.cls-6,.cls-7,.cls-8,.cls-9{font-size:72px;font-family:GillSans-Bold, Gill Sans;font-weight:700;}.cls-6{fill:#ed1c24;}.cls-7{fill:#8dc63f;}.cls-8{fill:#f89938;}.cls-9{fill:#27aae1;}</style><clipPath id="clip-path"><rect class="cls-1" width="500" height="500"/></clipPath></defs><title>Artboard 1</title><rect class="cls-2" width="500" height="500"/><g class="cls-3"><g class="cls-4"><path class="cls-5" d="M366.12,423.83l6.06,18.86,6.07,18.86-19.36-4.18-19.37-4.18,13.3-14.68,13.3-14.68m1.26-5.86L350.6,436.5,333.81,455l24.44,5.27,24.44,5.27L375,441.77,367.38,418Z"/></g><g class="cls-4"><path class="cls-5" d="M430.71,348.16l6.85,2.88,6.85,2.89-5.92,4.49-5.92,4.48-.93-7.37-.93-7.37M428.3,345l1.35,10.81L431,366.59,439.7,360l8.68-6.58-10-4.23-10-4.23Z"/></g><g class="cls-4"><path class="cls-5" d="M212.5,238A39.5,39.5,0,1,1,173,277.5,39.55,39.55,0,0,1,212.5,238m0-3A42.5,42.5,0,1,0,255,277.5,42.5,42.5,0,0,0,212.5,235Z"/></g><g class="cls-4"><path class="cls-5" d="M448.49,55h.65a17.5,17.5,0,0,1-.63,35h-.65a17.5,17.5,0,0,1,.63-35m0-2a19.5,19.5,0,0,0-.7,39h.72a19.5,19.5,0,0,0,.7-39Z"/></g><g class="cls-4"><path class="cls-5" d="M315.11-2.47l9.47,5,1.39.74,1.4-.74,9.47-5L335,8.08l-.27,1.55,1.13,1.1,7.66,7.47L333,19.74l-1.56.22-.7,1.42L326,31l-4.73-9.59-.7-1.42L319,19.74,308.39,18.2l7.66-7.47,1.13-1.1-.26-1.55L315.11-2.47m25.71-5.48L326-.14,311.12-7.95,314,8.58,302,20.29l16.6,2.42,7.42,15,7.43-15L350,20.29,338,8.58l2.83-16.53Z"/></g><g class="cls-4"><path class="cls-5" d="M483.11,355.53l9.47,5,1.39.74,1.4-.74,9.47-5L503,366.08l-.27,1.55,1.13,1.1,7.66,7.47L501,377.74l-1.56.22-.7,1.42L494,389l-4.73-9.59-.7-1.42-1.56-.22-10.59-1.54,7.66-7.47,1.13-1.1-.26-1.55-1.81-10.55m25.71-5.48L494,357.86l-14.85-7.81L482,366.58l-12,11.71,16.6,2.42,7.42,15,7.43-15,16.6-2.42-12-11.71,2.83-16.53Z"/></g><g class="cls-4"><path class="cls-5" d="M299.91,47.25l30.95,34-34,31-30.95-34,34-30.95m.2-4.24L261.64,78l35,38.47,38.47-35L300.11,43Z"/></g><g class="cls-4"><path class="cls-5" d="M38-6,68.67-1,99.39,4,79.7,28.09,60,52.19,49,23.08,38-6m-4.64-3.8,12.87,34,12.87,34L82,30,105,1.86,69.16-4,33.31-9.82Z"/></g><g class="cls-4"><path class="cls-5" d="M458.69,183v3h0A70.53,70.53,0,1,1,416,200.46,70.07,70.07,0,0,1,458.69,186v-3m0,0a73.53,73.53,0,1,0,58.53,29,73.16,73.16,0,0,0-58.53-29Z"/></g><g class="cls-4"><path class="cls-5" d="M164,157.67l1.78,10.54.26,1.56,1.43.66,9.7,4.52-9.48,5-1.4.73-.19,1.57-1.3,10.61-7.64-7.48L156,184.22l-1.54.3-10.5,2,4.76-9.58.7-1.41-.77-1.38-5.19-9.35,10.58,1.57,1.56.23,1.08-1.16,7.29-7.82m2-6.5-11.44,12.28L137.9,161,146,175.66l-7.47,15L155,187.47l12,11.74,2-16.65,14.87-7.77-15.2-7.08-2.79-16.54Z"/></g><g class="cls-4"><path class="cls-5" d="M126,212.52l32.05,14-13.9,31.75-32.05-14L126,212.52m-1.55-4-16.3,37.26,37.54,16.43L162,225l-37.55-16.44Z"/></g><g class="cls-4"><path class="cls-5" d="M367.29,288l10.87,44.69-44.7,10.87-10.87-44.69L367.29,288m2.2-3.63L319,296.62l12.28,50.53,50.53-12.29-12.29-50.53Z"/></g><g class="cls-4"><path class="cls-5" d="M447,126.67l1.78,10.54.26,1.56,1.43.66,9.7,4.52-9.48,5-1.4.73-.19,1.57-1.3,10.62-7.64-7.49L439,153.22l-1.54.31-10.5,2,4.76-9.58.7-1.41-.77-1.38-5.19-9.35,10.58,1.57,1.56.23,1.08-1.16,7.29-7.82m1.95-6.5-11.44,12.28L420.9,130,429,144.66l-7.47,15L438,156.47l12,11.74,2-16.65,14.87-7.77-15.2-7.07-2.79-16.55Z"/></g><g class="cls-4"><path class="cls-5" d="M228.49,171.34,243,198.88l-27.53,14.51L201,185.85l27.54-14.51m1.25-4.05-32.84,17.3,17.3,32.85,32.85-17.31-17.31-32.84Z"/></g><g class="cls-4"><path class="cls-5" d="M291.79,302.29l-2.66,7.57-2.65,7.57-5.23-6.08L276,305.26l7.89-1.48,7.88-1.49m3-2.61-11.28,2.13-11.29,2.13,7.48,8.71,7.49,8.71,3.8-10.84,3.8-10.84Z"/></g><g class="cls-4"><path class="cls-5" d="M231-13v3l.93,0A25,25,0,0,1,231,40c-.31,0-.62,0-.93,0A25,25,0,0,1,231-10v-3m0,0a28,28,0,0,0-1,56l1,0a28,28,0,0,0,1-56l-1,0Z"/></g><g class="cls-4"><path class="cls-5" d="M501.16,23.93,503,28.08l.43,1,1,.19L509,30l-3.37,3.06-.78.7.14,1.05.61,4.5-3.95-2.26-.91-.52-.95.45-4.1,2,.93-4.45.22-1-.73-.76-3.13-3.29,4.52-.49,1-.11.5-.93,2.16-4m.17-4.52L497.24,27l-8.55.93,5.94,6.22-1.76,8.42,7.75-3.72,7.46,4.27-1.14-8.52,6.37-5.78-8.46-1.54-3.52-7.85Z"/></g><g class="cls-4"><path class="cls-5" d="M1.16,23.93,3,28.08l.43,1,1,.19L9,30,5.59,33.1l-.78.7L5,34.85l.61,4.5L1.61,37.09.7,36.57-.25,37l-4.1,2,.93-4.45.22-1-.73-.76-3.13-3.29L-2.54,29l1-.11.5-.93,2.16-4m.17-4.52L-2.76,27l-8.55.93,5.94,6.22-1.76,8.42L.62,38.83,8.08,43.1,6.94,34.58l6.37-5.78L4.85,27.26,1.33,19.41Z"/></g><text class="cls-6" transform="matrix(0.98, -0.21, 0.21, 0.98, 249.86, 190.74)">+</text><text class="cls-7" transform="translate(89.61 323.34) rotate(27.09)">÷</text><text class="cls-8" transform="matrix(0.99, 0.16, -0.16, 0.99, 357.87, 120.05)">×</text><text class="cls-9" transform="translate(79.56 395.95) rotate(32.34)">–</text><text class="cls-6" transform="translate(259.12 322.86) rotate(147.73)">+</text><text class="cls-8" transform="translate(132.64 24.95) rotate(-22.29)">×</text><g class="cls-4"><path class="cls-5" d="M111.69,48h0a18.31,18.31,0,1,1-11.08,3.75A18.18,18.18,0,0,1,111.69,48m0-3a21.3,21.3,0,1,0,16.95,8.39A21.22,21.22,0,0,0,111.69,45Z"/></g><text class="cls-9" transform="translate(385.08 395.94) rotate(-39.74)">–</text><g class="cls-4"><path class="cls-5" d="M217.1,383.4l5.73,4.74,5.72,4.74-7,2.58-7,2.59,1.24-7.33,1.24-7.32m-1.39-3.75-1.82,10.74-1.83,10.74,10.22-3.79,10.21-3.79-8.39-6.95-8.39-7Z"/></g><g class="cls-4"><path class="cls-5" d="M262.85,400.34l44.93,9.88-9.88,44.92L253,445.26l9.88-44.92m-2.29-3.58-11.17,50.79,50.79,11.17,11.17-50.79-50.79-11.17Z"/></g><g class="cls-4"><path class="cls-5" d="M314.55,361.93l1.86,4.15.43,1,1,.19,4.47.81L319,371.1l-.78.7.14,1.05.61,4.5L315,375.09l-.91-.52-.95.45-4.1,2,.93-4.45.22-1-.73-.76-3.14-3.29,4.53-.49,1-.11.5-.93,2.16-4m.16-4.52L310.63,365l-8.55.93,5.94,6.22-1.76,8.42,7.75-3.72,7.46,4.27-1.14-8.52,6.37-5.78-8.46-1.54-3.53-7.85Z"/></g><g class="cls-4"><path class="cls-5" d="M67.3,250l6.12,8.77.91,1.29H75.9l10.7-.07-6.45,8.53-1,1.26.5,1.5,3.37,10.15L73,277.87l-1.49-.51-1.27.93-8.61,6.35.2-10.7,0-1.57-1.28-.92-8.7-6.23,10.24-3.11,1.5-.46.48-1.51L67.3,250m-1-6.7-5.08,16-16.05,4.88,13.64,9.77-.31,16.77,13.5-10,15.86,5.48-5.29-15.92,10.11-13.39L75.88,257l-9.6-13.75Z"/></g><g class="cls-4"><path class="cls-5" d="M432.2,396h0a31.42,31.42,0,1,1-19,6.43,31.22,31.22,0,0,1,19-6.43m0-3a34.41,34.41,0,1,0,27.39,13.56A34.25,34.25,0,0,0,432.2,393Z"/></g><text class="cls-7" transform="matrix(-0.9, -0.44, 0.44, -0.9, 334.38, 247.83)">÷</text><text class="cls-6" transform="matrix(0.85, -0.52, 0.52, 0.85, 490.7, 477.44)">+</text><g class="cls-4"><path class="cls-5" d="M381.15,40.59l10.74,3,10.75,3-7.93,7.83-7.93,7.83L384,51.38l-2.81-10.79m-2.81-2.84L382,51.88,385.72,66l10.39-10.26,10.4-10.27-14.09-3.87-14.08-3.87Z"/></g><g class="cls-4"><path class="cls-5" d="M164.28,340.45l28.38,36.2L156.46,405l-28.38-36.2,36.2-28.38m.51-4.21-40.92,32.08L156,409.24l40.93-32.08-32.09-40.92Z"/></g><text class="cls-9" transform="translate(482.04 167.37) rotate(18.84)">–</text><g class="cls-4"><path class="cls-5" d="M79.5,411A33.5,33.5,0,1,1,46,444.5,33.54,33.54,0,0,1,79.5,411m0-3A36.5,36.5,0,1,0,116,444.5,36.5,36.5,0,0,0,79.5,408Z"/></g><g class="cls-4"><path class="cls-5" d="M385.09,154.14,402.67,158l-3.87,17.58-17.58-3.86,3.87-17.59m-1.53-2.38-4.72,21.49L400.33,178l4.72-21.48-21.49-4.73Z"/></g><text class="cls-7" transform="translate(373.61 15.34) rotate(27.09)">÷</text><g class="cls-4"><path class="cls-5" d="M334,121v3h.74a20,20,0,0,1-.71,40h-.75a20,20,0,0,1,.72-40v-3m0,0a23,23,0,0,0-.83,46c.29,0,.57,0,.86,0a23,23,0,0,0,.82-46l-.85,0Z"/></g><g class="cls-4"><path class="cls-5" d="M192.3,425l6.12,8.77.91,1.29h1.57l10.7-.07-6.45,8.53-1,1.26.5,1.5,3.37,10.15L198,452.87l-1.49-.51-1.27.93-8.61,6.35.2-10.7,0-1.57-1.28-.92-8.7-6.23,10.24-3.11,1.5-.46.48-1.51L192.3,425m-1-6.7-5.08,16-16,4.88,13.64,9.77-.31,16.77,13.5-10,15.86,5.48-5.29-15.92,10.11-13.39-16.78.12-9.6-13.75Z"/></g><g class="cls-4"><path class="cls-5" d="M476-19.33,489.38,6.06,464,19.44,450.61-5.95,476-19.33m1.26-4.05L446.56-7.21l16.17,30.7,30.7-16.17-16.17-30.7Z"/></g><g class="cls-4"><path class="cls-5" d="M336.84,497.53,335,508.08l-.27,1.55,1.13,1.1,7.66,7.47L333,519.74l-1.56.22-.7,1.42L326,531l-4.73-9.59-.7-1.42-1.56-.22-10.59-1.54,7.66-7.47,1.13-1.1-.26-1.55-1.81-10.55,9.47,5,1.39.73,1.4-.73,9.47-5m4-5.48L326,499.86l-14.85-7.81L314,508.58l-12,11.71,16.6,2.42,7.42,15,7.43-15,16.6-2.42-12-11.71,2.83-16.53Z"/></g><g class="cls-4"><path class="cls-5" d="M38,494l30.72,5,30.72,5L79.7,528.09,60,552.19,49,523.08,38,494m-4.64-3.8,12.87,34,12.87,34L82,530l23-28.12L69.16,496l-35.85-5.84Z"/></g><g class="cls-4"><path class="cls-5" d="M231,487v3l.93,0a25,25,0,0,1-.89,50l-.93,0a25,25,0,0,1,.89-50v-3m0,0a28,28,0,0,0-1,56l1,0a28,28,0,0,0,1-56l-1,0Z"/></g><text class="cls-8" transform="translate(132.64 524.95) rotate(-22.29)">×</text><text class="cls-7" transform="translate(373.61 515.34) rotate(27.09)">÷</text><g class="cls-4"><path class="cls-5" d="M476,480.67l13.38,25.39L464,519.44l-13.38-25.39L476,480.67m1.26-4.05-30.7,16.17,16.17,30.7,30.7-16.17-16.17-30.7Z"/></g><g class="cls-4"><path class="cls-5" d="M265.55,212.93l1.86,4.15.43,1,1,.19,4.47.81L270,222.1l-.78.7.14,1,.61,4.5L266,226.09l-.91-.52-.95.45-4.1,2,.93-4.45.22-1-.73-.76-3.14-3.29,4.53-.49,1-.11.5-.93,2.16-4m.16-4.52L261.63,216l-8.55.93,5.94,6.22-1.76,8.42,7.75-3.72,7.46,4.27-1.14-8.52,6.37-5.78-8.46-1.54-3.53-7.85Z"/></g><g class="cls-4"><path class="cls-5" d="M53.5,151.68l26.26,16.71L106,185.09l-27.59,14.4-27.6,14.39,1.33-31.1,1.34-31.1m-2.77-5.32-1.56,36.29-1.56,36.29,32.2-16.79L112,185.35,81.37,165.86l-30.64-19.5Z"/></g><g class="cls-4"><path class="cls-5" d="M522.28,60.45l28.38,36.2L514.46,125l-28.38-36.2,36.2-28.38m.51-4.21L481.87,88.32,514,129.24l40.93-32.08L522.79,56.24Z"/></g><g class="cls-4"><path class="cls-5" d="M-16.89,355.53l9.47,5,1.39.74,1.4-.74,9.47-5L3,366.08l-.27,1.55,1.13,1.1,7.66,7.47L1,377.74-.59,378l-.7,1.42L-6,389l-4.73-9.59-.7-1.42-1.56-.22-10.59-1.54,7.66-7.47,1.13-1.1-.26-1.55-1.81-10.55m25.71-5.48L-6,357.86l-14.85-7.81L-18,366.58l-12,11.71,16.6,2.42,7.42,15,7.43-15L18,378.29,6,366.58l2.83-16.53Z"/></g><g class="cls-4"><path class="cls-5" d="M-41.31,183v3h0a70.07,70.07,0,0,1,56.15,27.78A70.12,70.12,0,0,1,28.63,266,70.08,70.08,0,0,1,1.49,312.65,69.93,69.93,0,0,1-41.2,327.08,70,70,0,0,1-97.35,299.3,70.61,70.61,0,0,1-84,200.46,69.88,69.88,0,0,1-41.31,186v-3m0,0a73.16,73.16,0,0,0-44.51,15.05,73.52,73.52,0,0,0-13.92,103,73.39,73.39,0,0,0,58.54,29A73.2,73.2,0,0,0,3.3,315,73.53,73.53,0,0,0,17.22,212a73.42,73.42,0,0,0-58.53-29Z"/></g><text class="cls-6" transform="matrix(0.85, -0.52, 0.52, 0.85, -9.3, 477.44)">+</text><text class="cls-9" transform="translate(-17.96 167.37) rotate(18.84)">–</text><g class="cls-4"><path class="cls-5" d="M22.28,60.45l28.38,36.2L14.46,125l-28.38-36.2,36.2-28.38m.51-4.21L-18.13,88.32,14,129.24,54.88,97.16,22.79,56.24Z"/></g><g class="cls-4"><path class="cls-5" d="M356.05,180.9l2.5,31,2.5,31-28.12-13.34-28.12-13.35,25.62-17.68,25.62-17.68m2.57-5.42-29.89,20.63-29.9,20.63,32.82,15.58,32.81,15.57-2.92-36.2-2.92-36.21Z"/></g><g class="cls-4"><path class="cls-5" d="M40.72,324.42l25.4,9.38,25.4,9.37L70.69,360.48,49.87,377.79,45.3,351.1l-4.58-26.68m-3.84-4.62,5.46,31.81,5.46,31.81,24.81-20.63,24.82-20.63L67.16,331,36.88,319.8Z"/></g><g class="cls-4"><path class="cls-5" d="M170.54,30.26l1.15,6.82.26,1.56,1.43.66,6.28,2.92-6.14,3.21-1.4.73-.19,1.56-.84,6.87-4.94-4.84L165,48.64l-1.55.3-6.79,1.33,3.08-6.2.7-1.41-.77-1.38-3.36-6.05,6.85,1,1.56.23,1.07-1.16,4.72-5.06m2-6.49-8.86,9.51-12.86-1.91,6.31,11.37L151.3,54.38l12.75-2.49,9.29,9.1,1.57-12.9,11.52-6-11.78-5.49-2.16-12.81Z"/></g><g class="cls-4"><path class="cls-5" d="M195.5,77.68l26.26,16.71L248,111.09l-27.59,14.4-27.6,14.39,1.33-31.1,1.34-31.1m-2.77-5.32-1.56,36.29-1.56,36.29,32.2-16.79L254,111.35,223.37,91.86l-30.64-19.5Z"/></g><text class="cls-7" transform="translate(89.81 157.96) rotate(-27.38)">÷</text><g class="cls-4"><path class="cls-5" d="M151.09,98.14,168.67,102l-3.87,17.58-17.58-3.86,3.87-17.59m-1.53-2.38-4.72,21.49L166.33,122l4.72-21.48-21.49-4.73Z"/></g></g></svg>