<svg xmlns="http://www.w3.org/2000/svg" viewBox="0 0 115.15 115.15"><defs><style>.cls-1{fill:#27aae1;}.cls-2{opacity:0.12;}.cls-3{fill:#fff;}</style></defs><title>Layer 1</title><g id="Layer_2" data-name="Layer 2"><g id="Layer_1-2" data-name="Layer 1"><circle class="cls-1" cx="57.57" cy="57.57" r="57.57"/><g class="cls-2"><path d="M60.1,5.55a2.09,2.09,0,0,1,1.24-.43,8.5,8.5,0,0,1,2.36.13c1.17.24,2.29.72,3.48.91a3.74,3.74,0,0,0,3.33-.85c-.19.2-.39.9-.58,1.19-.35.53-.78,1-1.16,1.5a.42.42,0,0,0-.12.25.43.43,0,0,0,.06.22c.46,1.08,1,2.16,1.4,3.26a2.2,2.2,0,0,1-1.54.11c-.52-.11-1-.31-1.55-.45A15.93,15.93,0,0,0,63,11a3.93,3.93,0,0,0-1.63.33A2.66,2.66,0,0,0,60,13c-.12-2,.34-4.11.07-6.14a2.18,2.18,0,0,1,.09-1.39"/><path d="M59.77,21.52a.76.76,0,0,1-.76-.77V5.82a.76.76,0,0,1,.76-.76.77.77,0,0,1,.77.76V20.75A.77.77,0,0,1,59.77,21.52Z"/><path d="M41.34,34.26a.94.94,0,0,0,.53-.16L60,21.47,78.19,34.1a.93.93,0,0,0,1.06-1.52L60.69,19.67a1.53,1.53,0,0,0-1.32,0L40.81,32.58a.92.92,0,0,0-.23,1.28A.93.93,0,0,0,41.34,34.26Z"/><path d="M41.67,44.48,19.74,56.42a.94.94,0,0,0-.37,1.26.93.93,0,0,0,.82.48.87.87,0,0,0,.44-.11L42.55,46.11a.93.93,0,0,0-.88-1.63Z"/><path d="M100.31,56.42,78.39,44.48a.93.93,0,1,0-.89,1.63L99.43,58.05a.87.87,0,0,0,.44.11.9.9,0,0,0,.81-.48A.93.93,0,0,0,100.31,56.42Z"/><path d="M77.72,48.64V36.31L60,24.42v0h0v0L42.34,36.31V48.64L22.54,59.33V86.41H50.27V67.52H59V86.41h2.1V67.52h8.71V86.41H97.52V59.33ZM36,80.91H29.4V70.65a3.31,3.31,0,0,1,6.61,0Zm20.87-25.5H50.27V45.16a3.31,3.31,0,0,1,6.61,0Zm12.91,0H63.18V45.16a3.31,3.31,0,0,1,6.61,0Zm20.87,25.5H84.05V70.65a3.31,3.31,0,0,1,6.61,0Z"/><rect x="19.26" y="86.41" width="81.53" height="3.66"/><polygon points="102.41 93.69 15.54 93.69 15.54 90.07 105.1 90.07 102.41 93.69"/></g><path class="cls-3" d="M57.65,3.66a2,2,0,0,1,1.24-.43,8.82,8.82,0,0,1,2.35.13c1.18.24,2.3.72,3.48.91a3.76,3.76,0,0,0,3.34-.85,12,12,0,0,0-.59,1.19c-.35.53-.78,1-1.16,1.5a.49.49,0,0,0-.12.25.55.55,0,0,0,.06.22c.47,1.08,1,2.16,1.41,3.26a2.23,2.23,0,0,1-1.55.11c-.52-.11-1-.31-1.54-.45a16,16,0,0,0-4-.36,3.93,3.93,0,0,0-1.63.33,2.62,2.62,0,0,0-1.36,1.64c-.12-2,.33-4.11.07-6.14a2.06,2.06,0,0,1,.09-1.39"/><path class="cls-3" d="M57.32,19.63a.76.76,0,0,1-.77-.76V3.93a.77.77,0,0,1,1.53,0V18.87A.76.76,0,0,1,57.32,19.63Z"/><path class="cls-3" d="M38.89,32.37a.91.91,0,0,0,.52-.16L57.57,19.58,75.73,32.21a1,1,0,0,0,.53.16.92.92,0,0,0,.53-1.68L58.23,17.78a.92.92,0,0,0-.66-.15.93.93,0,0,0-.66.15L38.36,30.69a.92.92,0,0,0,.53,1.68Z"/><path class="cls-3" d="M39.21,42.59,17.29,54.53a.93.93,0,0,0-.37,1.26.91.91,0,0,0,.81.48.87.87,0,0,0,.44-.11L40.1,44.22A.93.93,0,0,0,40.47,43,.94.94,0,0,0,39.21,42.59Z"/><path class="cls-3" d="M97.86,54.53,75.93,42.59a.93.93,0,0,0-.88,1.63L97,56.16a.9.9,0,0,0,.44.11.93.93,0,0,0,.45-1.74Z"/><path class="cls-3" d="M61,74.29a.93.93,0,0,0-.92.93v2.71a.93.93,0,1,0,1.85,0V75.22A.93.93,0,0,0,61,74.29Z"/><path class="cls-3" d="M54.78,74.29a.93.93,0,0,0-.93.93v2.71a.93.93,0,1,0,1.85,0V75.22A.93.93,0,0,0,54.78,74.29Z"/><path class="cls-3" d="M75.26,46.75V34.42L57.59,22.53v0h0v0L39.88,34.42V46.75L20.09,57.45V84.52H47.81V65.63h8.71V84.52h2.1V65.63h8.72V84.52H95.06V57.45ZM33.55,79H26.94V68.77a3.31,3.31,0,1,1,6.61,0Zm20.87-25.5H47.81V43.27a3.31,3.31,0,0,1,6.61,0Zm12.92,0H60.73V43.27a3.31,3.31,0,0,1,6.61,0ZM88.21,79H81.6V68.77a3.31,3.31,0,1,1,6.61,0Z"/><rect class="cls-3" x="16.81" y="84.52" width="81.53" height="3.66"/><rect class="cls-3" x="13.08" y="88.18" width="88.98" height="3.63"/></g></g></svg>